<?xml version="1.0" encoding="UTF-8" standalone="no"?>
<svg
   width="100mm"
   height="100mm"
   viewBox="0 0 99.999999 100"
   version="1.1"
   id="svg839"
   inkscape:version="1.2.2 (b0a8486541, 2022-12-01)"
   sodipodi:docname="clef_profile.svg"
   xmlns:inkscape="http://www.inkscape.org/namespaces/inkscape"
   xmlns:sodipodi="http://sodipodi.sourceforge.net/DTD/sodipodi-0.dtd"
   xmlns="http://www.w3.org/2000/svg"
   xmlns:svg="http://www.w3.org/2000/svg"
   xmlns:rdf="http://www.w3.org/1999/02/22-rdf-syntax-ns#"
   xmlns:cc="http://creativecommons.org/ns#"
   xmlns:dc="http://purl.org/dc/elements/1.1/">
  <defs
     id="defs833" />
  <sodipodi:namedview
     id="base"
     pagecolor="#ffffff"
     bordercolor="#666666"
     borderopacity="1.0"
     inkscape:pageopacity="0.0"
     inkscape:pageshadow="2"
     inkscape:zoom="1.4"
     inkscape:cx="-0.71428571"
     inkscape:cy="168.21429"
     inkscape:document-units="mm"
     inkscape:current-layer="layer1"
     inkscape:document-rotation="0"
     showgrid="false"
     fit-margin-top="0"
     fit-margin-left="2.4"
     fit-margin-right="0"
     fit-margin-bottom="0"
     inkscape:window-width="1854"
     inkscape:window-height="1011"
     inkscape:window-x="66"
     inkscape:window-y="32"
     inkscape:window-maximized="1"
     inkscape:showpageshadow="2"
     inkscape:pagecheckerboard="0"
     inkscape:deskcolor="#d1d1d1" />
  <metadata
     id="metadata836">
    <rdf:RDF>
      <cc:Work
         rdf:about="">
        <dc:format>image/svg+xml</dc:format>
        <dc:type
           rdf:resource="http://purl.org/dc/dcmitype/StillImage" />
      </cc:Work>
    </rdf:RDF>
  </metadata>
  <g
     inkscape:label="Layer 1"
     inkscape:groupmode="layer"
     id="layer1"
     transform="translate(-90.567046,-21.637303)">
    <path
       id="path925"
       style="fill:#ee1d23;fill-opacity:1;stroke-width:0.221853"
       d="m 151.18697,114.73221 c -3.82684,-1.1038 -7.88856,-5.02009 -9.76306,-9.41351 -0.92946,-2.17845 -0.78702,-2.3096 0.50708,-0.46686 2.1334,3.03785 5.25591,5.69798 7.97993,6.79826 2.32918,0.9408 5.1016,0.88541 5.24704,-0.10482 0.17361,-1.182 -1.85769,-6.25226 -4.99941,-12.478867 -1.75465,-3.477559 -3.27752,-6.410277 -3.38416,-6.517153 -0.11092,-0.111152 -0.88933,-0.01618 -1.81878,0.221851 -2.42194,0.620324 -8.04512,0.567826 -10.49902,-0.098 -3.96708,-1.076402 -7.62814,-3.603824 -9.20008,-6.351303 -0.69119,-1.208056 -1.44767,-3.718775 -1.25986,-4.181343 0.0598,-0.14725 0.11658,-0.08268 0.12621,0.143543 0.04,0.938888 1.65829,3.50468 2.98615,4.734478 2.41199,2.233871 5.79536,3.504135 10.02631,3.76433 3.17954,0.195531 8.30321,-0.623543 8.3029,-1.327324 -6e-5,-0.143861 -0.2054,-0.8017 -0.45631,-1.461853 -0.4941,-1.299997 -1.19644,-4.188034 -1.4076,-5.788115 -0.11728,-0.888645 -0.0353,-0.771623 0.74586,1.065032 0.94908,2.231373 2.56379,5.276193 2.91225,5.491554 0.34211,0.211445 2.19341,-0.978943 3.591,-2.309035 2.22031,-2.113067 3.22862,-4.93192 2.9563,-8.26469 -0.35348,-4.326093 -2.52827,-7.957278 -5.65037,-9.434266 -1.63967,-0.775691 -3.97441,-0.946125 -5.59359,-0.408318 -2.32321,0.771649 -4.33235,3.412487 -5.75448,7.563719 l -0.67482,1.96986 0.124,-1.331122 c 0.68419,-7.344342 4.95771,-11.526833 10.79307,-10.563143 5.15938,0.852053 9.01583,5.489256 9.71989,11.687742 0.62624,5.513204 -1.66358,10.150197 -6.40259,12.965586 l -1.53242,0.910396 2.29188,3.647818 c 4.03888,6.428393 6.17661,11.181003 7.09806,15.780423 0.20014,0.99897 0.33115,2.04705 0.29115,2.32906 -0.17301,1.21987 -4.85053,2.13331 -7.30253,1.42607 z M 126.13706,77.643673 c 0,-0.49241 3.27142,-6.852492 6.22246,-12.097283 6.38933,-11.355586 7.77367,-15.244786 7.77121,-21.832496 -0.002,-4.491321 -1.04865,-7.427438 -3.40945,-9.561384 -2.47958,-2.2413 -5.53123,-3.01211 -7.61067,-1.922359 -2.08513,1.092745 -4.08355,4.10078 -4.99961,7.525433 -0.48636,1.81825 -0.67224,5.537981 -0.3641,7.286116 l 0.15644,0.887412 -0.34858,-0.776487 c -0.69906,-1.557224 -1.01662,-3.773269 -0.89016,-6.211902 0.21582,-4.162175 1.31642,-6.960458 3.67386,-9.340816 1.93265,-1.951446 3.31396,-2.501495 5.94714,-2.368199 1.60171,0.08108 2.05527,0.207639 3.7455,1.045185 3.65648,1.811853 6.00659,4.99947 6.87134,9.320063 0.57283,2.86206 0.35092,7.51693 -0.51899,10.885983 -1.43652,5.563563 -3.29248,8.965485 -10.28659,18.855067 -1.76905,2.501395 -3.74748,5.346676 -4.39652,6.322827 -1.32791,1.997196 -1.56328,2.295728 -1.56328,1.98284 z m 23.21227,-34.269096 c -1.10467,-1.31281 -0.95561,-3.225484 0.33606,-4.312359 1.00121,-0.842469 1.41391,-0.738922 1.74325,0.437363 0.15388,0.549596 0.22531,1.405321 0.15874,1.901622 -0.1204,0.897701 -1.09393,2.645467 -1.47354,2.645467 -0.10944,0 -0.45348,-0.302439 -0.76451,-0.672093 z m -3.14122,-12.736599 c -1.02048,-1.020483 -0.4726,-2.342927 0.97065,-2.342927 0.59177,0 0.76848,0.128635 1.08312,0.788444 0.44946,0.942535 0.25559,1.383663 -0.79686,1.81311 -0.65477,0.267172 -0.75088,0.2474 -1.25691,-0.258627 z" />
  </g>
</svg>
