<svg
        xmlns="http://www.w3.org/2000/svg"
        width="1342.275"
        height="390.728"
        version="1.1"
        viewBox="0 0 355.143 103.38"
      >
        <g transform="translate(153.356 40.124)">
          <path
            fill="#000"
            strokeWidth="0.357"
            d="M-94.834 15.033c-2.712.06-4.974 1.108-5.922 2.877-1.322 2.464-.466 5.24 2.407 7.803 3.715 3.316 4.403 4.068 4.79 5.239.54 1.641-.128 2.992-1.916 3.865-1.17.571-1.576.61-2.747.26-1.42-.427-2.836-1.845-2.845-2.853-.003-.317-.161-.817-.351-1.112-.241-.373-.348.246-.352 2.042l-.006 2.578 1.16.356c1.791.55 5.73.233 7.109-.573 1.812-1.058 2.796-2.764 2.796-4.847 0-2.446-.818-3.94-3.337-6.095-4.108-3.514-4.515-3.996-4.515-5.342 0-1.9 1.03-2.931 2.928-2.931 1.958 0 3.45.934 3.731 2.336.355 1.774.836 1.175.836-1.042 0-2.063-.018-2.1-1.115-2.32a12.38 12.38 0 00-2.651-.241zm46.926 3.106c-.336.124-1.738 2.589-3.736 6.582l-3.458 6.908-3.438-6.75c-1.891-3.712-3.599-6.725-3.795-6.697-.197.028-.943 3.74-1.66 8.25-.716 4.51-1.415 8.384-1.553 8.607-.138.223-.596.545-1.017.715-.52.21.209.308 2.267.304 2.449-.004 2.844-.074 2.052-.364-1.177-.43-1.22-1.072-.446-6.723.282-2.061.523-3.909.536-4.105.013-.196 1.343 2.213 2.956 5.354 1.613 3.14 3.093 5.71 3.29 5.71.196 0 1.668-2.57 3.272-5.71 1.688-3.307 2.992-5.485 3.099-5.175.361 1.052 1.362 9.68 1.178 10.16-.27.702.553.91 3.455.868 2.306-.033 2.444-.073 1.397-.41-1.46-.467-1.561-.816-2.947-10.065-.587-3.916-1.216-7.27-1.399-7.453-.013-.012-.03-.014-.053-.006zm54.423.124c-.259 0-.466 2.728-.627 8.268-.143 4.929-.392 8.451-.617 8.723-.208.25-.728.524-1.155.607-.428.083.828.158 2.792.167 2.78.013 3.314-.057 2.414-.317-.763-.22-1.211-.604-1.317-1.128-.282-1.392-.532-10.966-.287-10.966.13 0 3.16 2.908 6.734 6.463 3.645 3.626 6.666 6.359 6.882 6.225.238-.147.404-1.909.433-4.589.025-2.393.146-6.192.267-8.441.215-3.978.246-4.097 1.114-4.337.49-.136-.634-.239-2.499-.229-1.865.01-2.96.084-2.435.164.526.08 1.109.337 1.296.571.187.234.452 3.075.588 6.314l.248 5.89-6.722-6.693c-3.698-3.68-6.897-6.692-7.109-6.692zm128.944.008c-3.968.014-6.403 1.762-6.403 4.596 0 2.046 1.045 3.444 4.1 5.485 3.011 2.012 3.775 3.142 3.241 4.795-.439 1.358-2.495 2.368-4.18 2.053-1.536-.289-3.064-1.738-3.064-2.908 0-.486-.156-.768-.357-.644-.196.121-.356 1.09-.356 2.155 0 1.82.058 1.948.981 2.152.54.12 1.142.28 1.339.358.849.335 4.824-.167 5.775-.729 2.454-1.449 3.296-4.457 1.95-6.966-.363-.679-1.448-1.754-2.409-2.39-4.532-2.996-4.424-2.896-4.419-4.124.006-1.364.25-1.802 1.31-2.36 1.9-1 5.11.103 5.11 1.757 0 .379.16.688.356.688.197 0 .357-.785.357-1.746 0-2.058-.192-2.183-3.33-2.172zm-161.566.17l-6.157.14c-3.386.078-5.683.239-5.103.358 1.41.291 1.545.916 1.584 7.355.045 7.494-.168 8.984-1.348 9.416-.684.251.163.336 3.171.318 2.258-.014 3.674-.091 3.149-.172-1.566-.24-1.817-.894-1.86-4.84l-.04-3.651 1.578-.113c2.224-.16 3.146.154 3.73 1.267.498.952.508.935.633-1.04.116-1.83.071-1.978-.504-1.67-.347.187-1.712.291-3.034.233l-2.403-.105v-6.068l1.428-.104c2.403-.174 4.266.37 4.398 1.284.191 1.324.778.487.778-1.111zm186.313 0l-7.88.057c-4.332.031-7.924.111-7.98.179-.057.067-.21.818-.34 1.67l-.237 1.546.812-.897c.698-.772 1.177-.915 3.407-1.024l2.594-.127-.096 7.676-.096 7.676-.892.45c-.767.389-.316.447 3.212.42 2.799-.02 3.73-.12 2.927-.31-.648-.153-1.29-.39-1.428-.528-.137-.136-.25-3.649-.25-7.804v-7.556l2.142.112c2.815.146 3.376.335 3.748 1.258.241.597.316.368.334-1.013zm16.653 0c-1.828 0-11.904.414-11.281.463 1.698.135 1.768.458 1.73 7.907-.02 3.838-.146 7.374-.28 7.857-.143.51-.615.985-1.125 1.13-.484.137 1.851.223 5.189.191l6.067-.058.053-1.785c.028-.981-.022-1.435-.111-1.007-.26 1.238-1.076 1.655-3.298 1.685-3.024.04-3.247-.253-3.247-4.291v-3.347h1.583c2.078 0 3.357.515 3.758 1.512.29.721.328.674.353-.441.015-.687.128-1.629.253-2.093.204-.764.156-.806-.517-.446-.408.219-1.797.397-3.086.397h-2.344v-6.424l1.696.035c2.381.05 3.411.405 3.875 1.335.364.73.418.647.595-.908.106-.941.168-1.711.137-1.711zm-55.787.05c-.966.01-3.157.065-5.66.146-3.337.107-5.658.228-5.157.267 1.7.136 1.766.444 1.766 8.286 0 7.7-.114 8.315-1.606 8.674-.393.094 2.01.148 5.338.12l6.052-.053.291-1.404c.388-1.87.16-2.409-.467-1.105-.578 1.203-2.217 1.745-4.254 1.405-2.004-.335-2.142-.61-2.142-4.294v-3.347l1.696.036c2.49.052 3.42.406 3.699 1.405.201.723.252.753.285.165.021-.392.141-1.334.267-2.093.217-1.314.192-1.36-.516-.982-.41.22-1.798.398-3.087.398h-2.344v-6.424l1.696.035c2.386.05 3.412.405 3.88 1.343.373.75.423.686.653-.851.137-.915.197-1.689.133-1.72-.016-.008-.201-.01-.523-.006zm-18.23.166c-2.447-.03-2.9.05-2.732.489.197.513-5.362 6.97-6 6.97-.362 0-.38-6.095-.019-6.652.145-.222.584-.484.976-.583.393-.098-.972-.178-3.034-.177-2.06 0-3.265.104-2.676.23l1.07.228v16.034l-.892.451c-.768.389-.346.446 3.034.409 2.16-.024 3.524-.118 3.034-.208-1.654-.304-1.785-.658-1.785-4.83v-3.932l1.511 1.745c2.976 3.437 5.823 6.287 6.77 6.778.577.3 1.939.486 3.39.464 2.287-.034 2.355-.06 1.178-.418-.855-.26-2.712-1.833-5.888-4.987l-4.64-4.608 3.402-3.31c2.52-2.451 3.77-3.405 4.818-3.682 1.322-.35 1.222-.377-1.517-.411zm-175.806.003c-1.162.018-1.233.13-.807.441.625.457.583.62-.847 3.305-.828 1.554-1.79 3.201-2.136 3.661l-.631.837-2.023-3.472c-2.098-3.603-2.329-4.272-1.576-4.576.245-.099-1.08-.186-2.945-.194-3.133-.013-3.307.022-2.294.464 1.345.586 6.163 7.834 6.658 10.016.179.79.218 2.511.088 3.826-.215 2.165-.327 2.423-1.185 2.738-.706.259.095.345 3.157.339 2.756-.006 3.718-.1 2.927-.288-.648-.153-1.29-.391-1.428-.529-.137-.138-.25-1.803-.25-3.7v-3.45l2.237-3.615c2.457-3.971 3.662-5.365 4.84-5.595.427-.083-.58-.172-2.237-.2-.652-.01-1.16-.014-1.548-.008zm106.462.044c-2.061-.007-3.346.099-2.856.235 1.177.328 1.335 1.188 1.383 7.533.055 7.294-.164 8.807-1.341 9.239-.688.252.148.34 3.171.333 2.755-.005 3.717-.1 2.927-.287-.648-.153-1.29-.391-1.428-.528-.418-.418-.528-14.19-.121-15.243.213-.553.714-1.02 1.19-1.111.453-.087-.864-.163-2.925-.17zm19.386-.387c-.389 0-.786.013-1.194.041-3.188.219-5.057 1.043-6.76 2.982-1.638 1.866-2.263 3.538-2.251 6.025.02 4.393 2.534 7.517 7.06 8.775 1.761.49 5.63.094 7.453-.763 2.024-.951 4.23-3.372 4.797-5.266.231-.77.42-2.336.42-3.478 0-5.137-3.693-8.308-9.525-8.316zm-.89 1.056c4.101-.025 6.843 3.33 6.835 8.527-.005 3.07-.815 5.3-2.272 6.254-1.054.691-2.929 1.154-3.963.978-1.94-.33-2.442-.562-3.736-1.732-1.846-1.667-2.695-3.928-2.668-7.106.035-4.165 1.727-6.506 4.966-6.87.285-.033.565-.05.838-.051zm-62.167-1.11c-6.222 0-10.229 3.532-10.22 9.008.006 4.396 2.634 7.753 6.956 8.886 1.787.469 5.65.068 7.436-.771 1.897-.892 3.907-2.968 4.691-4.845.703-1.681.698-5.507-.01-7.203-1.306-3.13-4.697-5.075-8.853-5.075zm-1.019 1.136c2.035.016 4.16 1.008 5.511 2.969 2.546 3.694 1.822 10.21-1.331 11.983-.59.331-1.473.68-1.963.773-.845.162-1.178.13-3.133-.287-1.33-.285-3.56-2.577-4.253-4.372-.911-2.362-.818-6.191.198-8.182.992-1.941 2.937-2.9 4.971-2.884zm198.803-.736c-2.804.023-4.616.145-4.027.27l1.07.23v16.033l-.892.451c-.768.389-.346.446 3.034.409 2.16-.024 3.525-.118 3.034-.208-1.59-.292-1.784-.717-1.784-3.887v-2.99h1.346c1.275 0 1.466.16 3.552 2.985 2.55 3.453 3.698 4.157 6.755 4.146l2.088-.008-1.428-.664c-1.453-.675-2.638-1.816-5.694-5.48l-1.714-2.056.99-.978c2.281-2.255 2.816-4.148 1.755-6.2-.902-1.745-2.308-2.101-8.086-2.053zm.435 1.028h1.422c1.067 0 1.713.26 2.587 1.041 1.05.937 1.166 1.239 1.166 3.006 0 1.586-.166 2.14-.865 2.884-.699.744-1.198.921-2.588.921h-1.722v-3.926zm-117.682-.953c-1.87.008-2.97.057-2.601.13 1.765.351 1.784.44 1.784 8.294 0 7.731-.114 8.347-1.606 8.697-.392.092 1.053.171 3.213.176 2.906.007 3.637-.074 2.814-.313-.985-.286-1.136-.51-1.338-1.98a28.682 28.682 0 01-.227-3.215v-1.556l1.517.022c1.477.022 1.57.096 3.57 2.862 2.614 3.613 3.645 4.263 6.691 4.217 2.145-.033 2.232-.064 1.153-.41-1.13-.361-4.525-3.648-6.654-6.44l-.997-1.307 1.456-1.655c2.32-2.635 2.295-4.963-.069-6.716-.912-.675-1.533-.75-6.603-.8-.77-.007-1.479-.009-2.103-.006zm4.186.998c.953-.022 1.352.187 2.142.977.92.92 1.065 1.327 1.065 3.007 0 1.425-.197 2.193-.74 2.883-.622.79-1.023.94-2.51.94-1.14 0-1.834-.168-1.95-.473-.1-.26-.136-1.986-.079-3.836l.103-3.365 1.523-.11c.162-.012.31-.02.446-.023z"
          ></path>
          <path
            fill="#ee1d23"
            fillOpacity="1"
            strokeWidth="0.357"
            d="M-95.703-15.783c-3.826.013-5.715 1.567-5.715 4.7 0 1.813 1.52 4.103 3.955 5.957 1.024.78 2.159 1.904 2.522 2.499 1.301 2.134.562 4.152-1.778 4.853-2.018.605-3.792-.242-4.694-2.24l-.69-1.532.074 2.127c.068 1.936.155 2.149.968 2.373.49.136 1.74.263 2.777.283 3.78.071 6.146-1.885 6.144-5.078-.001-2.313-.71-3.519-3.418-5.809-3.24-2.74-3.719-3.337-3.719-4.63 0-2.473 3.585-3.609 5.463-1.731.506.506.988 1.269 1.07 1.695.084.427.173-.058.2-1.077.03-1.135-.123-1.958-.393-2.125-.243-.15-1.488-.27-2.766-.265zm220.395 2.622l-.236 1.703c-.13.936-.251 4.361-.268 7.61-.022 4.081-.164 6.04-.46 6.335-.333.334 0 .428 1.496.428 1.627 0 1.83-.068 1.314-.446-.51-.372-.648-1.333-.838-5.8l-.228-5.354 6.146 5.979c3.38 3.288 6.296 5.978 6.48 5.978.194 0 .35-2.448.37-5.8.02-3.19.14-6.676.269-7.748.2-1.682.354-1.982 1.124-2.195.503-.14-.43-.239-2.142-.229-1.668.01-2.592.085-2.053.167.658.1 1.033.405 1.137.928.306 1.52.55 10.594.285 10.594-.148 0-2.998-2.734-6.333-6.075zm-52.215.015c-.154 0-.809 3.413-1.457 7.585-.647 4.171-1.344 7.785-1.547 8.03-.287.347.014.446 1.348.446 1.46 0 1.627-.067 1.111-.446-.566-.416-.57-.735-.06-4.729.3-2.356.593-4.524.65-4.818.056-.295 1.164 1.552 2.46 4.104 3.556 6.998 2.972 6.913 5.988.878 2.735-5.475 2.772-5.54 3.003-5.31.294.295 1.346 8.958 1.17 9.632-.166.632.017.688 2.195.667 1.764-.017 2.171-.105 1.583-.341-.937-.377-.9-.233-2.07-8.203-.505-3.435-1.049-6.567-1.209-6.96-.234-.576-.884.472-3.376 5.443-1.697 3.387-3.164 6.157-3.26 6.157-.096 0-1.542-2.73-3.212-6.067-1.671-3.338-3.164-6.068-3.317-6.068zm125.291.134c-3.042.054-5.44 1.71-5.44 3.96 0 2.038.893 3.292 3.564 5.004 3.428 2.197 4 3.515 2.356 5.426-.724.842-1.123.997-2.506.968-1.742-.037-3.403-1.132-3.425-2.259-.009-.468-.072-.456-.379.071-.63 1.083-.249 2.52.748 2.818 1.538.461 5.487.102 6.553-.597 2.964-1.942 2.536-6.107-.851-8.27-3.756-2.4-3.918-2.558-3.918-3.84 0-1.552 1.031-2.344 3.051-2.344 1.46 0 2.633.804 3.121 2.141.108.295.21-.207.225-1.114l.028-1.65-1.788-.236a8.967 8.967 0 00-1.339-.078zm-219.342.091c-.138.138-.25 3.505-.25 7.483 0 6.099-.089 7.32-.562 7.792-.51.51-.374.561 1.496.561 1.863 0 1.992-.047 1.364-.506-.621-.454-.705-1.05-.813-5.8l-.12-5.294 6.083 6.01C-11.03.63-8.125 3.23-7.92 3.104c.238-.148.372-2.77.372-7.28 0-7.185.122-7.899 1.428-8.366.294-.105-.75-.185-2.32-.177-1.57.007-2.534.091-2.142.188 1.529.375 1.607.68 1.607 6.295V-.84l-6.174-6.166c-3.396-3.391-6.287-6.053-6.425-5.915zm200.271.013c-2.978-.003-3.16.138-3.3.654-.387 1.444-.256 1.685.593 1.091.513-.36 1.583-.555 3.033-.555h2.241v6.626c0 3.886-.153 6.913-.37 7.317-.347.65-.234.69 1.874.685 1.553-.004 2.079-.11 1.708-.344-.439-.277-.557-1.6-.658-7.355l-.122-7.016 2.4.152c1.97.126 2.522.301 3.068.975l.666.823v-2.906l-7.12-.103a333 333 0 00-4.013-.044zm-178.31.021c-2.56-.003-4.366.05-4.366.142 0 .123-.1.766-.221 1.428-.208 1.13-.189 1.161.318.505.423-.549 1.087-.731 3.077-.844l2.537-.143v6.93c0 4.912-.124 7.053-.428 7.356-.333.334.08.428 1.856.428 1.777 0 2.189-.094 1.856-.428-.304-.303-.428-2.435-.428-7.316v-6.89h1.761c2.167 0 3.479.468 3.7 1.319.091.355.185-.031.208-.858l.041-1.503-7.139-.103c-.981-.014-1.918-.022-2.772-.023zm-82.861.098c-5.44 0-7.221.108-7.325.446-.076.245-.233.882-.35 1.415l-.212.97.88-.88c.758-.759 1.207-.88 3.249-.88h2.368l-.122 6.973c-.1 5.716-.218 7.034-.657 7.311-.368.233.226.34 1.9.344 2.213.005 2.383-.046 1.874-.556-.47-.47-.562-1.65-.562-7.317v-6.755l1.874.002c1.03 0 2.316.233 2.856.514.814.425.981.43.981.027 0-.266.098-.739.217-1.05.193-.503-.564-.564-6.971-.564zm56.366 0l-5.264.049c-2.896.026-4.895.119-4.442.205 1.357.26 1.577 1.562 1.423 8.426-.113 5.048-.248 6.427-.659 6.686-.327.208 1.264.33 4.35.333 4.746.005 4.871-.014 5.08-.798.12-.441.209-1.124.199-1.517-.016-.65-.047-.642-.343.095-.417 1.038-1.942 1.62-3.66 1.396-2.173-.284-2.394-.66-2.394-4.05V-4.97l2.221.107c1.96.093 2.276.211 2.672.998.432.856.45.83.455-.625l.005-1.517h-5.353v-5.743l2.4.106c2.15.094 2.446.198 2.85.997.431.857.45.831.455-.624zm48.542 0l-5.443.042c-2.994.024-4.962.145-4.373.27l1.071.23.097 7.09c.067 4.927-.028 7.238-.312 7.58h.001c-.343.414.362.492 4.453.492h4.863v-.863c0-.474.09-1.157.201-1.517.11-.36-.052-.218-.36.313-.667 1.146-2.385 1.582-4.382 1.111l-1.349-.318-.102-3.289-.103-3.289h2.134c1.174 0 2.233.16 2.354.357.421.681.893.352.893-.625l.001-.981-2.677.117-2.678.118V-11.718h2.116c1.405 0 2.296.18 2.651.535.77.77.944.671.944-.535zm150.62 0l-5.264.035c-2.895.02-4.872.145-4.392.28 1.3.362 1.545 1.922 1.373 8.725-.119 4.703-.262 6.076-.663 6.33-.32.203 1.302.325 4.354.329 4.747.005 4.872-.014 5.081-.798.119-.441.208-1.124.198-1.517-.016-.65-.047-.642-.343.095-.417 1.038-1.941 1.62-3.659 1.396-2.173-.284-2.395-.66-2.395-4.05V-4.97l2.222.107c1.96.093 2.275.211 2.672.998.428.848.45.813.456-.714l.006-1.606-2.678.117-2.678.118v-5.8l2.4.106c2.151.094 2.447.198 2.85.997.432.857.45.831.456-.624zm-73.256.038c-.76-.009-1.74-.005-2.997.004-3.113.024-5.178.145-4.59.27l1.072.23.097 7.09c.067 4.927-.028 7.238-.312 7.58-.34.41 0 .49 2.045.481 1.84-.008 2.297-.101 1.828-.374-.529-.308-.624-.91-.624-3.932v-3.569l2.221.107c1.96.093 2.276.211 2.672.998.432.856.45.83.455-.625l.006-1.517h-5.354v-5.71h2.294c1.61 0 2.462.167 2.856.56.483.485.56.488.56.03 0-.293.098-.786.218-1.096.144-.376-.164-.503-2.447-.527zm7.405.04c-1.963.004-3.088.109-2.499.234l1.071.228.194 5.53c.25 7.105.77 8.393 3.818 9.481 3.507 1.251 7.412.127 8.81-2.537.627-1.197.768-2.26.92-6.931.178-5.517.178-5.517 1.07-5.765.507-.14-.419-.241-2.141-.234-1.669.007-2.684.08-2.257.164 1.501.292 1.627.858 1.48 6.616-.088 3.439-.303 5.745-.584 6.25-.954 1.713-4.06 2.414-6.076 1.372-1.778-.92-2.022-1.91-2.022-8.186v-5.73l.893-.25c.49-.137-.714-.246-2.677-.242zm-178.818.006c-1.963.007-3.168.087-2.677.179.49.09 1.01.35 1.154.576.144.226.266 2.498.27 5.05.004 2.552.174 5.237.376 5.967.516 1.857 1.894 3.359 3.466 3.777 4.277 1.136 7.77-.148 9.035-3.32.235-.588.526-3.472.648-6.409.219-5.31.225-5.34 1.112-5.586.507-.14-.419-.241-2.141-.234-1.669.007-2.664.084-2.211.17 1.293.248 1.574 1.608 1.422 6.884-.153 5.29-.567 6.666-2.235 7.426-1.463.666-3.887.53-4.91-.275-1.516-1.192-1.73-2.278-1.624-8.214l.1-5.508.892-.248c.49-.136-.714-.242-2.677-.235zm219.15-.036c-2.748.02-4.515.14-3.926.265l1.07.229.097 7.09c.066 4.79-.03 7.243-.297 7.564-.322.387.092.503 2.223.621 7.347.409 10.583-.576 12.599-3.836.917-1.483 1.082-2.107 1.082-4.1.001-2.793-.786-4.637-2.556-5.987-1.818-1.387-4.611-1.888-10.292-1.846zm2.02.945c5.058.046 8.143 2.886 8.15 7.61.004 2.724-1.325 4.986-3.467 5.898-1.335.57-4.99.634-5.9.104-.56-.326-.625-1.054-.625-6.949 0-6.576.001-6.586.803-6.636.355-.022.701-.03 1.038-.027zm-202.37-.886c-2.02.01-3.18.08-2.739.184l1.071.25.097 7.09c.065 4.79-.031 7.244-.298 7.565-.321.387.093.503 2.223.621 7.349.41 10.584-.576 12.6-3.838.945-1.528 1.083-2.08 1.083-4.336 0-2.297-.12-2.755-1.075-4.113-.647-.921-1.772-1.888-2.831-2.433-1.657-.852-2.108-.909-7.85-.98-.837-.011-1.606-.014-2.28-.01zm3.283.886c5.415.077 8.496 3.357 7.956 8.623-.21 2.042-.886 3.244-2.507 4.454-.73.545-1.631.757-3.547.834-3.972.16-3.82.452-3.82-7.248 0-6.576.002-6.586.804-6.636.381-.023.753-.032 1.114-.027zm96.998-1.221c-3.107.047-5.402 1.732-5.402 4.161 0 1.96.925 3.205 3.577 4.816 3.337 2.027 3.98 3.515 2.343 5.418-.724.842-1.124.997-2.506.968-1.703-.036-3.414-1.133-3.414-2.19 0-.272-.16-.396-.357-.274-.196.121-.356.773-.356 1.448 0 2.166-1.344 1.401-4.808-2.737l-2.41-2.879 1.068-1.128c2.08-2.2 2.443-4.168 1.063-5.768-1.064-1.233-2.849-1.598-7.584-1.55-2.16.022-3.525.114-3.034.206.49.09 1.01.35 1.154.576.412.643.325 13.389-.096 14.175-.346.648-.234.69 1.81.69 1.982 0 2.13-.05 1.62-.56-.41-.41-.562-1.279-.562-3.213v-2.651h1.369c1.256 0 1.478.16 2.716 1.957.74 1.076 1.976 2.525 2.743 3.218 1.336 1.207 1.504 1.259 3.901 1.21 1.378-.029 2.62.066 2.759.21.44.454 4.943-.04 5.794-.636 3.16-2.213 2.708-6.236-.943-8.385-2.736-1.61-3.794-2.676-3.794-3.819 0-1.521 1.247-2.381 3.26-2.25 1.394.092 1.74.28 2.439 1.32l.815 1.212v-3.225l-1.789-.237a9.396 9.396 0 00-1.376-.083zm-16.569 1.244c2.52.022 3.672 1.28 3.672 3.978 0 .938-.261 1.683-.803 2.29-.842.942-2.04 1.308-3.39 1.037-.769-.154-.804-.316-.804-3.706 0-3.425.027-3.546.803-3.587.18-.01.354-.013.522-.012zM59.8-13.049c-.17.056-1.7 3.346-3.4 7.312-1.7 3.965-3.371 7.534-3.713 7.931-.61.709-.593.721.948.721 1.394 0 1.548-.08 1.383-.713-.103-.393.172-1.597.61-2.677l.797-1.963h5.588L63.013.234l1.002 2.674 1.857.003 1.857.005-.786-.869c-.432-.478-2.148-4.093-3.811-8.034-1.664-3.941-3.164-7.118-3.333-7.062zm-.557 3.65l1.047 2.678c.576 1.472 1.047 2.877 1.048 3.123 0 .307-.664.446-2.14.446-2.703 0-2.674.275-.513-4.908z"
          ></path>
          <path
            fill="#ee1d23"
            fillOpacity="1"
            strokeWidth="0.265"
            d="M-119.308 62.962c-4.564-1.317-9.408-5.987-11.644-11.227-1.108-2.598-.938-2.754.605-.557 2.544 3.623 6.268 6.796 9.517 8.108 2.778 1.122 6.084 1.056 6.258-.125.207-1.41-2.216-7.457-5.963-14.883-2.092-4.147-3.908-7.644-4.036-7.772-.132-.132-1.06-.02-2.169.265-2.888.74-9.594.677-12.52-.117-4.732-1.284-9.098-4.298-10.973-7.575-.824-1.44-1.726-4.435-1.502-4.986.07-.176.139-.099.15.17.048 1.12 1.978 4.18 3.561 5.647 2.877 2.664 6.912 4.18 11.958 4.49 3.792.233 9.902-.744 9.902-1.584 0-.171-.245-.956-.544-1.743-.59-1.55-1.427-4.995-1.68-6.903-.139-1.06-.041-.92.89 1.27 1.132 2.661 3.058 6.293 3.474 6.55.408.252 2.615-1.168 4.282-2.754 2.648-2.52 3.85-5.882 3.526-9.857-.422-5.159-3.015-9.49-6.739-11.251-1.955-.925-4.74-1.128-6.67-.487-2.771.92-5.167 4.07-6.863 9.02l-.805 2.35.148-1.588c.816-8.759 5.912-13.747 12.871-12.597 6.154 1.016 10.753 6.546 11.592 13.938.747 6.576-1.984 12.106-7.635 15.463l-1.828 1.086 2.733 4.35c4.817 7.667 7.367 13.335 8.466 18.82.238 1.192.395 2.442.347 2.778-.206 1.455-5.785 2.544-8.71 1.7zm-29.875-44.232c0-.588 3.902-8.173 7.421-14.428 7.62-13.542 9.271-18.18 9.268-26.037-.002-5.356-1.25-8.858-4.066-11.403-2.957-2.673-6.597-3.592-9.077-2.293-2.486 1.304-4.87 4.891-5.962 8.975-.58 2.169-.802 6.605-.434 8.69l.186 1.058-.415-.926c-.834-1.857-1.213-4.5-1.062-7.408.257-4.964 1.57-8.301 4.381-11.14 2.305-2.328 3.953-2.984 7.093-2.825 1.91.097 2.451.248 4.467 1.247 4.36 2.16 7.163 5.962 8.195 11.115.683 3.413.418 8.965-.62 12.983-1.712 6.635-3.926 10.692-12.267 22.486-2.11 2.984-4.47 6.377-5.243 7.541-1.584 2.382-1.865 2.738-1.865 2.365zm27.683-40.87c-1.317-1.565-1.14-3.846.401-5.143 1.194-1.004 1.686-.88 2.079.522.184.655.269 1.676.19 2.268-.144 1.07-1.305 3.155-1.758 3.155-.13 0-.54-.36-.912-.802zm-3.746-15.19c-1.217-1.216-.564-2.794 1.158-2.794.705 0 .916.154 1.291.94.536 1.125.305 1.65-.95 2.163-.78.319-.895.295-1.499-.308z"
          ></path>
        </g>
      </svg>