<svg
        xmlns="http://www.w3.org/2000/svg"
        width="1032.275"
        height="390.728"
        version="1.1"
        viewBox="0 0 273.123 103.38"
      >
        <g>
          <path
            fill="#fff"
            stroke="#fff"
            strokeWidth="0"
            d="M0 0H273.123V103.38H0z"
          ></path>
        </g>
        <g transform="translate(153.356 40.124)">
          <path
            fill="#000"
            strokeWidth="1"
            d="M212.447 160.95c-7.599.17-13.934 3.105-16.592 8.06-3.703 6.905-1.304 14.68 6.745 21.863 10.41 9.29 12.334 11.396 13.418 14.678 1.517 4.598-.358 8.383-5.366 10.828-3.278 1.601-4.417 1.71-7.697.726-3.98-1.192-7.944-5.166-7.97-7.99-.01-.888-.452-2.29-.985-3.115-.676-1.045-.973.69-.984 5.72l-.016 7.223 3.25.998c5.018 1.542 16.05.652 19.916-1.605 5.076-2.965 7.834-7.746 7.834-13.582 0-6.853-2.29-11.036-9.35-17.074-11.51-9.847-12.65-11.198-12.65-14.97 0-5.32 2.887-8.21 8.205-8.21 5.486 0 9.668 2.618 10.453 6.545.994 4.97 2.342 3.291 2.342-2.92 0-5.78-.05-5.885-3.125-6.5a34.687 34.687 0 00-5.893-.672 31.844 31.844 0 00-1.535-.004zm131.475 8.702c-.942.347-4.869 7.254-10.469 18.442l-9.687 19.353-9.633-18.91c-5.298-10.4-10.083-18.844-10.633-18.766-.55.079-2.641 10.481-4.648 23.118-2.008 12.636-3.967 23.487-4.354 24.113-.387.626-1.668 1.527-2.85 2.004-1.456.588.586.862 6.352.851 6.862-.012 7.97-.208 5.75-1.02-3.297-1.203-3.416-3.004-1.25-18.837.79-5.775 1.466-10.95 1.502-11.5.036-.55 3.762 6.2 8.281 15 4.52 8.8 8.667 16 9.217 16 .55 0 4.675-7.2 9.168-16 4.73-9.267 8.385-15.369 8.684-14.5 1.012 2.948 3.815 27.123 3.3 28.465-.755 1.969 1.55 2.55 9.68 2.433 6.462-.092 6.847-.205 3.914-1.146-4.088-1.311-4.373-2.288-8.256-28.201-1.644-10.973-3.408-20.37-3.92-20.881-.035-.036-.085-.04-.148-.018zM496.4 170c-.724 0-1.305 7.642-1.755 23.164-.402 13.809-1.1 23.679-1.73 24.44-.583.701-2.04 1.468-3.237 1.7-1.198.234 2.322.444 7.822.47 7.79.035 9.285-.16 6.764-.89-2.137-.617-3.393-1.69-3.69-3.16-.79-3.901-1.49-30.724-.803-30.724.364 0 8.853 8.148 18.866 18.107 10.212 10.159 18.677 17.816 19.283 17.442.665-.411 1.13-5.348 1.21-12.858.073-6.705.41-17.348.75-23.65.602-11.144.688-11.477 3.12-12.15 1.375-.38-1.775-.669-7-.641-5.225.028-8.295.234-6.822.459 1.472.225 3.106.945 3.63 1.6.525.654 1.267 8.616 1.649 17.691l.693 16.5-18.834-18.75C505.957 178.437 496.996 170 496.4 170zm361.268.021c-11.12.04-17.941 4.937-17.941 12.877 0 5.733 2.93 9.65 11.488 15.37 8.436 5.637 10.575 8.802 9.08 13.431-1.23 3.806-6.991 6.637-11.71 5.752-4.305-.808-8.585-4.87-8.585-8.146 0-1.36-.438-2.152-1-1.805-.55.34-1 3.057-1 6.04 0 5.1.163 5.458 2.75 6.028 1.512.334 3.2.785 3.75 1.002 2.379.939 13.516-.466 16.182-2.04 6.874-4.061 9.234-12.49 5.464-19.518-1.02-1.902-4.057-4.915-6.75-6.696-12.698-8.396-12.397-8.114-12.38-11.556.018-3.82.698-5.046 3.668-6.61 5.325-2.803 14.316.288 14.316 4.922 0 1.06.45 1.928 1 1.928s1-2.201 1-4.893c0-5.765-.538-6.117-9.332-6.086zm-452.666.479l-17.25.393c-9.488.215-15.922.666-14.297 1.002 3.95.814 4.328 2.565 4.438 20.605.127 20.996-.471 25.17-3.778 26.383-1.916.703.458.94 8.885.888 6.325-.039 10.295-.255 8.822-.48-4.388-.671-5.09-2.504-5.21-13.56L386.5 195.5l4.42-.316c6.232-.446 8.815.432 10.45 3.55 1.396 2.667 1.425 2.62 1.775-2.916.323-5.125.199-5.54-1.413-4.675-.972.521-4.797.814-8.5.652l-6.732-.295v-17l4-.291c6.732-.49 11.952 1.033 12.322 3.596.537 3.71 2.179 1.364 2.18-3.114zm521.998 0l-22.074.158c-12.14.087-22.204.312-22.362.5-.157.189-.585 2.293-.95 4.678l-.665 4.334 2.276-2.514c1.956-2.161 3.296-2.564 9.545-2.869l7.267-.355-.267 21.506-.27 21.505-2.5 1.264c-2.149 1.086-.884 1.251 9 1.176 7.84-.06 10.45-.336 8.2-.87-1.816-.43-3.616-1.094-4-1.478-.385-.383-.7-10.224-.7-21.867V174.5l6 .313c7.887.41 9.459.938 10.502 3.525.675 1.673.885 1.031.934-2.838zm46.658 0c-5.122 0-33.353 1.158-31.607 1.297 4.759.378 4.956 1.28 4.85 22.152-.055 10.753-.41 20.659-.788 22.014-.398 1.43-1.72 2.758-3.15 3.164-1.355.385 5.187.627 14.537.537l17-.164.146-5c.081-2.75-.06-4.02-.31-2.822-.727 3.467-3.013 4.636-9.24 4.72-8.473.116-9.096-.708-9.096-12.021V195h4.436c5.82 0 9.405 1.444 10.527 4.236.812 2.02.92 1.887.988-1.236.043-1.925.361-4.563.71-5.863.573-2.143.438-2.26-1.448-1.25-1.144.612-5.035 1.113-8.647 1.113H956v-18l4.75.1c6.672.14 9.559 1.133 10.857 3.738 1.02 2.046 1.172 1.815 1.666-2.543.3-2.638.473-4.795.385-4.795zm-156.3.14c-2.707.027-8.846.181-15.858.407-9.35.301-15.852.639-14.45.75 4.767.378 4.95 1.241 4.95 23.213 0 21.577-.319 23.296-4.5 24.303-1.1.264 5.631.414 14.957.333l16.955-.146.817-3.934c1.086-5.237.448-6.748-1.31-3.095-1.62 3.371-6.213 4.888-11.919 3.935-5.616-.937-6-1.709-6-12.03V195l4.75.1c6.976.146 9.583 1.137 10.363 3.937.565 2.027.708 2.108.8.463.06-1.1.396-3.74.747-5.865.608-3.681.54-3.812-1.445-2.75-1.146.613-5.037 1.115-8.649 1.115H801v-18l4.75.1c6.685.14 9.56 1.134 10.87 3.761 1.048 2.103 1.185 1.923 1.831-2.384.385-2.563.552-4.732.373-4.819-.044-.022-.564-.026-1.467-.017zm-51.077.464c-6.855-.087-8.124.14-7.652 1.369.551 1.437-15.022 19.527-16.81 19.527-1.016 0-1.064-17.074-.053-18.635.404-.624 1.634-1.358 2.734-1.633 1.1-.274-2.725-.499-8.5-.498-5.775.001-9.15.292-7.5.645l3 .64v44.922l-2.5 1.264c-2.152 1.089-.97 1.25 8.5 1.145 6.05-.067 9.875-.33 8.5-.582-4.634-.852-5-1.844-5-13.532V194.72l4.234 4.89c8.337 9.63 16.312 17.615 18.967 18.99 1.616.838 5.433 1.36 9.5 1.3 6.404-.097 6.595-.166 3.299-1.17-2.396-.73-7.598-5.136-16.498-13.975l-12.998-12.91 9.531-9.272c7.06-6.868 10.56-9.542 13.498-10.318 3.705-.978 3.424-1.054-4.252-1.15zm-492.558.008c-3.257.05-3.458.362-2.262 1.236 1.751 1.28 1.633 1.738-2.375 9.26-2.319 4.352-5.012 8.968-5.984 10.257l-1.768 2.344-5.668-9.728c-5.879-10.094-6.523-11.968-4.416-12.819.687-.277-3.025-.523-8.25-.545-8.778-.036-9.266.063-6.428 1.3 3.77 1.641 17.27 21.948 18.655 28.062.5 2.211.612 7.036.246 10.72-.603 6.067-.916 6.79-3.319 7.67-1.98.726.267.967 8.846.95 7.72-.016 10.415-.28 8.2-.805-1.816-.43-3.616-1.097-4-1.483-.385-.386-.7-5.052-.7-10.367V197.5l6.266-10.129c6.882-11.127 10.26-15.033 13.56-15.676 1.195-.232-1.625-.483-6.267-.558-1.826-.03-3.25-.043-4.336-.026zm298.277.124c-5.775-.02-9.376.276-8.002.659 3.298.917 3.74 3.328 3.875 21.105.155 20.435-.46 24.673-3.758 25.883-1.926.707.413.953 8.885.935 7.72-.015 10.415-.28 8.2-.804-1.816-.43-3.616-1.096-4-1.48-1.173-1.172-1.48-39.758-.34-42.708.598-1.55 2-2.858 3.335-3.113 1.267-.242-2.42-.457-8.195-.477zm54.314-1.086a47.661 47.661 0 00-3.345.116c-8.934.612-14.17 2.921-18.94 8.353-4.59 5.23-6.341 9.914-6.308 16.881.058 12.308 7.1 21.061 19.779 24.586 4.937 1.372 15.777.263 20.883-2.137 5.672-2.666 11.851-9.45 13.441-14.756.647-2.159 1.176-6.544 1.176-9.744 0-14.39-10.345-23.275-26.686-23.299zm-2.494 2.96c11.49-.07 19.172 9.328 19.149 23.89-.014 8.603-2.283 14.848-6.364 17.521-2.955 1.937-8.206 3.233-11.105 2.74-5.434-.922-6.84-1.575-10.467-4.85-5.17-4.672-7.55-11.008-7.474-19.911.098-11.67 4.838-18.227 13.914-19.25.798-.09 1.581-.136 2.347-.14zM449.645 170c-17.433 0-28.66 9.894-28.635 25.238.019 12.315 7.382 21.722 19.49 24.897 5.008 1.313 15.832.19 20.834-2.162 5.315-2.499 10.945-8.313 13.143-13.573 1.968-4.711 1.954-15.43-.028-20.181-3.658-8.771-13.16-14.219-24.804-14.219zm-2.854 3.182c5.7.046 11.654 2.825 15.44 8.318 7.132 10.35 5.103 28.608-3.731 33.574-1.65.928-4.125 1.903-5.5 2.166-2.365.453-3.3.366-8.775-.804-3.729-.798-9.975-7.22-11.916-12.25-2.554-6.617-2.294-17.345.554-22.922 2.779-5.44 8.227-8.128 13.928-8.082zm556.99-2.063c-7.855.065-12.931.407-11.281.76l3 .64v44.922l-2.5 1.264c-2.152 1.089-.97 1.25 8.5 1.145 6.05-.067 9.875-.33 8.5-.582-4.454-.82-5-2.009-5-10.891V200h3.773c3.573 0 4.106.448 9.952 8.363 7.145 9.675 10.359 11.648 18.925 11.616l5.85-.022-4-1.86c-4.072-1.892-7.392-5.087-15.955-15.355l-4.8-5.758 2.773-2.742c6.39-6.318 7.89-11.62 4.916-17.37-2.528-4.888-6.466-5.887-22.653-5.753zM1005 174h3.984c2.99 0 4.8.729 7.25 2.918 2.939 2.625 3.266 3.47 3.266 8.42 0 4.446-.465 5.996-2.424 8.082-1.957 2.083-3.355 2.58-7.25 2.58H1005v-11zm-329.71-2.67c-5.243.022-8.321.16-7.29.365 4.946.983 5 1.235 5 23.237 0 21.66-.32 23.388-4.5 24.367-1.1.257 2.95.48 9 .494 8.143.02 10.191-.209 7.887-.877-2.762-.8-3.185-1.427-3.75-5.549-.35-2.555-.637-6.607-.637-9.006V200l4.25.063c4.14.06 4.399.268 10.004 8.017 7.322 10.123 10.212 11.944 18.746 11.815 6.01-.091 6.253-.177 3.229-1.147-3.163-1.014-12.676-10.222-18.641-18.043l-2.795-3.664 4.08-4.635c6.498-7.382 6.43-13.906-.193-18.816-2.554-1.893-4.296-2.103-18.5-2.24a432.9 432.9 0 00-5.89-.02zm11.726 2.797c2.67-.063 3.788.525 6.002 2.738 2.578 2.578 2.982 3.718 2.982 8.424 0 3.991-.552 6.144-2.072 8.076-1.741 2.214-2.866 2.635-7.032 2.635-3.194 0-5.139-.47-5.466-1.324-.28-.729-.378-5.566-.22-10.75l.29-9.426 4.268-.309a26.12 26.12 0 011.248-.064z"
            transform="matrix(.26458 0 0 .26458 -156.327 -46.209)"
          ></path>
          <path
            fill="#ee1d23"
            fillOpacity="1"
            strokeWidth="1"
            d="M210.012 74.611C199.294 74.648 194 79.002 194 87.78c0 5.082 4.26 11.498 11.082 16.692 2.869 2.184 6.049 5.334 7.064 7 3.647 5.98 1.577 11.633-4.98 13.597-5.654 1.694-10.623-.677-13.15-6.277l-1.936-4.291.21 5.959c.19 5.425.434 6.021 2.71 6.65 1.375.38 4.876.737 7.781.791 10.589.2 17.221-5.28 17.215-14.226-.005-6.482-1.993-9.86-9.578-16.276C201.343 89.723 200 88.048 200 84.426c0-6.927 10.044-10.11 15.305-4.85 1.417 1.417 2.767 3.555 3 4.75.232 1.195.483-.162.558-3.017.084-3.18-.343-5.487-1.101-5.955-.681-.421-4.168-.755-7.75-.743zM827.5 81.96l-.662 4.77c-.364 2.623-.702 12.22-.75 21.322-.06 11.434-.458 16.92-1.287 17.75-.934.933-.004 1.199 4.19 1.199 4.558 0 5.127-.193 3.68-1.25-1.426-1.043-1.814-3.735-2.347-16.25l-.638-15 17.218 16.75c9.47 9.213 17.64 16.75 18.157 16.75.542 0 .981-6.859 1.039-16.25.054-8.938.391-18.707.75-21.709.562-4.713.991-5.553 3.15-6.15 1.41-.39-1.207-.67-6-.641-4.675.028-7.263.238-5.752.467 1.842.279 2.892 1.136 3.186 2.6.856 4.26 1.538 29.683.796 29.683-.414 0-8.398-7.66-17.742-17.021zM681.207 82c-.43 0-2.266 9.562-4.08 21.25-1.815 11.688-3.766 21.813-4.336 22.5-.804.97.04 1.25 3.777 1.25 4.091 0 4.558-.188 3.114-1.25-1.585-1.165-1.596-2.061-.168-13.25.842-6.6 1.66-12.675 1.818-13.5.159-.825 3.262 4.35 6.895 11.5 9.961 19.607 8.326 19.368 16.775 2.459 7.664-15.339 7.769-15.522 8.416-14.875.823.823 3.77 25.095 3.275 26.984-.463 1.77.05 1.928 6.15 1.87 4.944-.048 6.085-.294 4.436-.958-2.623-1.055-2.52-.65-5.8-22.98-1.415-9.625-2.938-18.4-3.385-19.5-.657-1.615-2.478 1.32-9.46 15.25-4.754 9.488-8.865 17.25-9.134 17.25-.269 0-4.319-7.65-9-17s-8.863-17-9.293-17zm351.033.375c-8.523.153-15.24 4.79-15.24 11.098 0 5.709 2.502 9.22 9.984 14.017 9.605 6.157 11.209 9.849 6.602 15.203-2.029 2.358-3.149 2.792-7.021 2.711-4.881-.102-9.536-3.17-9.596-6.328-.025-1.312-.202-1.279-1.063.2-1.764 3.031-.697 7.057 2.094 7.894 4.31 1.292 15.376.284 18.361-1.672 8.305-5.441 7.104-17.11-2.384-23.172-10.524-6.723-10.977-7.166-10.977-10.76 0-4.347 2.89-6.566 8.549-6.566 4.09 0 7.375 2.254 8.744 6 .302.825.586-.58.629-3.121l.078-4.621-5.01-.664a25.123 25.123 0 00-3.75-.219zm-614.537.256c-.387.387-.703 9.82-.703 20.965 0 17.086-.247 20.507-1.572 21.832-1.429 1.428-1.048 1.572 4.191 1.572 5.22 0 5.58-.133 3.822-1.418-1.74-1.272-1.976-2.945-2.279-16.25l-.336-14.832 17.043 16.836c9.374 9.26 17.514 16.546 18.088 16.191.667-.412 1.043-7.762 1.043-20.394 0-20.13.341-22.132 4-23.44.825-.295-2.1-.518-6.5-.498-4.4.02-7.1.257-6 .528 4.282 1.052 4.5 1.907 4.5 17.638v15.118l-17.297-17.276c-9.513-9.502-17.613-16.959-18-16.572zm561.106.037c-8.345-.01-8.857.386-9.245 1.832-1.085 4.045-.718 4.721 1.659 3.057 1.438-1.008 4.436-1.557 8.5-1.557H986v18.566c0 10.886-.428 19.366-1.035 20.5-.973 1.818-.656 1.933 5.25 1.918 4.35-.01 5.823-.307 4.785-.963-1.23-.776-1.562-4.484-1.844-20.607l-.343-19.658 6.726.428c5.516.35 7.064.842 8.594 2.732l1.867 2.305v-8.14l-19.95-.29c-4.807-.07-8.46-.12-11.241-.123zm-499.577.059c-7.172-.01-12.234.14-12.234.398 0 .344-.277 2.144-.62 4-.582 3.166-.527 3.253.892 1.414 1.186-1.538 3.046-2.048 8.62-2.363l7.11-.403v19.415c0 13.765-.348 19.762-1.2 20.613-.933.933.222 1.199 5.2 1.199s6.133-.266 5.2-1.2c-.851-.85-1.2-6.821-1.2-20.5V86h4.936c6.07 0 9.745 1.31 10.363 3.693.257.994.522-.087.586-2.402l.115-4.21-20.002-.29c-2.75-.04-5.375-.061-7.766-.064zM247.076 83c-15.238 0-20.232.304-20.523 1.25-.212.688-.652 2.472-.979 3.965l-.594 2.715 2.465-2.465c2.125-2.125 3.38-2.465 9.102-2.465h6.637l-.342 19.537c-.28 16.016-.612 19.708-1.842 20.484-1.031.652.634.953 5.322.963 6.202.014 6.679-.128 5.25-1.556-1.318-1.318-1.572-4.626-1.572-20.5V86l5.25.006c2.888.003 6.487.652 8 1.441 2.28 1.19 2.75 1.203 2.75.076 0-.747.274-2.07.607-2.94.542-1.411-1.578-1.583-19.53-1.583zM405 83l-14.75.137c-8.113.075-13.712.334-12.445.576 3.803.727 4.418 4.374 3.988 23.605-.316 14.145-.697 18.008-1.846 18.735-.918.58 3.54.922 12.186.931 13.299.015 13.648-.04 14.236-2.234.332-1.238.582-3.15.555-4.25-.045-1.822-.132-1.8-.961.264-1.17 2.91-5.44 4.54-10.252 3.912-6.09-.796-6.711-1.847-6.711-11.346v-8.426l6.225.3c5.49.262 6.374.591 7.486 2.796 1.21 2.399 1.26 2.327 1.273-1.75L404 102h-15V85.908l6.725.297c6.026.265 6.854.555 7.984 2.795 1.21 2.399 1.261 2.328 1.275-1.75zm136 0l-15.25.12c-8.387.064-13.9.405-12.25.757l3 .64.271 19.864c.19 13.805-.077 20.282-.873 21.24h.002c-.962 1.16 1.015 1.379 12.477 1.379H542v-2.418c0-1.33.254-3.242.564-4.25.31-1.007-.144-.613-1.01.875-1.866 3.212-6.68 4.433-12.275 3.113l-3.779-.89-.287-9.215-.287-9.215h5.978c3.288 0 6.256.45 6.596 1 1.18 1.909 2.5.985 2.502-1.75l.002-2.75-7.502.328-7.502.33V86h5.928c3.936 0 6.433.504 7.43 1.5C540.513 89.657 541 89.381 541 86zm422 0l-14.75.1c-8.113.054-13.65.406-12.305.78 3.64 1.017 4.327 5.387 3.846 24.448-.332 13.178-.735 17.024-1.857 17.734-.9.57 3.647.913 12.199.922 13.299.015 13.648-.04 14.236-2.234.332-1.238.582-3.15.555-4.25-.045-1.822-.132-1.8-.961.264-1.17 2.91-5.44 4.54-10.252 3.912-6.09-.796-6.711-1.847-6.711-11.346v-8.426l6.225.3c5.49.262 6.374.591 7.486 2.796 1.198 2.377 1.261 2.28 1.277-2l.016-4.5-7.502.328-7.502.33v-16.25l6.725.297c6.026.265 6.854.555 7.984 2.795 1.21 2.399 1.261 2.328 1.275-1.75zm-205.246.105a496.98 496.98 0 00-8.397.014c-8.72.065-14.507.406-12.857.758l3 .64.271 19.864c.19 13.805-.077 20.282-.873 21.24-.953 1.149 0 1.373 5.729 1.348 5.157-.023 6.436-.284 5.123-1.05-1.482-.862-1.75-2.55-1.75-11.017v-9.998l6.225.3c5.49.262 6.374.591 7.486 2.796 1.21 2.399 1.259 2.327 1.273-1.75L763 102h-15V86h6.428c4.51 0 6.897.47 8 1.572 1.355 1.356 1.572 1.365 1.572.08 0-.819.274-2.2.607-3.07.405-1.053-.458-1.409-6.853-1.477zm20.746.114c-5.5.01-8.65.305-7 .656l3 .639.545 15.494c.7 19.904 2.154 23.514 10.695 26.562 9.825 3.506 20.766.355 24.682-7.11 1.759-3.352 2.155-6.33 2.578-19.417.5-15.457.5-15.458 3-16.15 1.42-.394-1.174-.677-6-.657-4.675.02-7.52.226-6.322.46 4.205.818 4.558 2.402 4.146 18.536-.246 9.634-.85 16.095-1.636 17.508-2.674 4.8-11.377 6.766-17.024 3.846-4.98-2.575-5.664-5.35-5.664-22.936V84.596l2.5-.7c1.375-.383-2-.687-7.5-.677zm-501 .017c-5.5.02-8.875.245-7.5.5 1.375.256 2.83.984 3.234 1.616.404.632.745 6.998.756 14.148.012 7.15.487 14.673 1.055 16.719 1.445 5.202 5.305 9.41 9.71 10.58 11.981 3.182 21.77-.414 25.313-9.299.658-1.65 1.475-9.73 1.815-17.957.614-14.88.63-14.961 3.117-15.65 1.42-.394-1.173-.677-6-.657-4.675.02-7.462.235-6.195.477 3.625.693 4.41 4.503 3.984 19.287-.427 14.818-1.588 18.675-6.262 20.805-4.097 1.866-10.888 1.485-13.757-.772-4.246-3.339-4.846-6.38-4.547-23.012l.277-15.433 2.5-.693c1.375-.382-2-.679-7.5-.659zm614-.101c-7.7.056-12.65.39-11 .742l3 .64.271 19.864c.184 13.422-.086 20.294-.833 21.195-.9 1.085.259 1.408 6.228 1.74 20.584 1.145 29.652-1.615 35.299-10.748 2.57-4.156 3.031-5.905 3.033-11.486.003-7.827-2.202-12.992-7.162-16.775-5.095-3.886-12.92-5.289-28.836-5.172zm5.658 2.646c14.174.13 22.816 8.087 22.836 21.32.012 7.636-3.712 13.971-9.713 16.528-3.742 1.594-13.984 1.775-16.531.29-1.567-.912-1.75-2.951-1.75-19.468 0-18.425.003-18.452 2.25-18.592a40.9 40.9 0 012.908-.078zM330.176 83.3c-5.663.03-8.914.228-7.676.517l3 .702.271 19.863c.184 13.422-.086 20.294-.834 21.195-.9 1.085.26 1.408 6.229 1.74 20.588 1.146 29.651-1.616 35.3-10.754 2.648-4.28 3.034-5.828 3.034-12.148 0-6.437-.335-7.718-3.01-11.523-1.814-2.581-4.965-5.29-7.933-6.817-4.642-2.389-5.905-2.547-21.99-2.748-2.347-.03-4.504-.037-6.391-.027zm9.195 2.484c15.173.216 23.803 9.406 22.291 24.158-.586 5.721-2.482 9.089-7.025 12.48-2.043 1.526-4.57 2.12-9.938 2.337-11.128.45-10.699 1.266-10.699-20.307 0-18.425.003-18.452 2.25-18.592 1.069-.066 2.11-.09 3.121-.076zm271.762-3.422C602.429 82.493 596 87.214 596 94.02c0 5.492 2.59 8.979 10.02 13.492 9.35 5.68 11.153 9.85 6.566 15.181-2.029 2.358-3.149 2.792-7.022 2.711-4.771-.1-9.564-3.174-9.564-6.136 0-.762-.45-1.108-1-.768-.55.34-1 2.166-1 4.059 0 6.068-3.764 3.925-13.47-7.67l-6.75-8.065 2.99-3.162c5.828-6.162 6.845-11.678 2.98-16.158-2.982-3.457-7.983-4.48-21.25-4.344-6.05.062-9.875.32-8.5.576 1.375.256 2.83.984 3.234 1.616 1.153 1.802.91 37.51-.27 39.714-.97 1.815-.654 1.934 5.073 1.934 5.552 0 5.964-.144 4.535-1.572-1.146-1.147-1.572-3.58-1.572-9V109h3.834c3.52 0 4.142.448 7.61 5.482 2.076 3.016 5.536 7.074 7.687 9.018 3.743 3.382 4.214 3.527 10.93 3.389 3.86-.08 7.337.187 7.728.59 1.234 1.272 13.85-.113 16.232-1.782 8.855-6.202 7.59-17.473-2.64-23.494-7.665-4.511-10.631-7.496-10.631-10.7 0-4.261 3.493-6.672 9.137-6.302 3.902.256 4.87.781 6.83 3.697L620 92.295v-9.038l-5.01-.663a26.322 26.322 0 00-3.857-.233zm-46.42 3.487c7.058.06 10.287 3.587 10.287 11.144 0 2.629-.732 4.716-2.25 6.414-2.359 2.64-5.713 3.666-9.5 2.906-2.152-.431-2.25-.885-2.25-10.382 0-9.597.076-9.935 2.25-10.05.505-.026.992-.036 1.463-.032zm80.974-3.577c-.474.159-4.76 9.377-9.525 20.487-4.764 11.11-9.445 21.11-10.402 22.22-1.71 1.986-1.663 2.022 2.656 2.022 3.904 0 4.337-.225 3.873-2-.287-1.1.483-4.475 1.711-7.5l2.232-5.5H651.887l2.806 7.488 2.807 7.49 5.203.01 5.201.012-2.2-2.433c-1.212-1.34-6.018-11.47-10.679-22.51-4.66-11.041-8.863-19.944-9.337-19.785zm-1.56 10.229l2.934 7.5c1.612 4.125 2.933 8.063 2.935 8.75.003.862-1.86 1.25-5.996 1.25-7.572 0-7.491.77-1.436-13.75z"
            transform="matrix(.26458 0 0 .26458 -156.327 -46.209)"
          ></path>
          <path
            fill="#ee1d23"
            fillOpacity="1"
            strokeWidth="0.265"
            d="M-119.308 62.962c-4.564-1.317-9.408-5.987-11.644-11.227-1.108-2.598-.938-2.754.605-.557 2.544 3.623 6.268 6.796 9.517 8.108 2.778 1.122 6.084 1.056 6.258-.125.207-1.41-2.216-7.457-5.963-14.883-2.092-4.147-3.908-7.644-4.036-7.772-.132-.132-1.06-.02-2.169.265-2.888.74-9.594.677-12.52-.117-4.732-1.284-9.098-4.298-10.973-7.575-.824-1.44-1.726-4.435-1.502-4.986.07-.176.139-.099.15.17.048 1.12 1.978 4.18 3.561 5.647 2.877 2.664 6.912 4.18 11.958 4.49 3.792.233 9.902-.744 9.902-1.584 0-.171-.245-.956-.544-1.743-.59-1.55-1.427-4.995-1.68-6.903-.139-1.06-.041-.92.89 1.27 1.132 2.661 3.058 6.293 3.474 6.55.408.252 2.615-1.168 4.282-2.754 2.648-2.52 3.85-5.882 3.526-9.857-.422-5.159-3.015-9.49-6.739-11.251-1.955-.925-4.74-1.128-6.67-.487-2.771.92-5.167 4.07-6.863 9.02l-.805 2.35.148-1.588c.816-8.759 5.912-13.747 12.871-12.597 6.154 1.016 10.753 6.546 11.592 13.938.747 6.576-1.984 12.106-7.635 15.463l-1.828 1.086 2.733 4.35c4.817 7.667 7.367 13.335 8.466 18.82.238 1.192.395 2.442.347 2.778-.206 1.455-5.785 2.544-8.71 1.7zm-29.875-44.232c0-.588 3.902-8.173 7.421-14.428 7.62-13.542 9.271-18.18 9.268-26.037-.002-5.356-1.25-8.858-4.066-11.403-2.957-2.673-6.597-3.592-9.077-2.293-2.486 1.304-4.87 4.891-5.962 8.975-.58 2.169-.802 6.605-.434 8.69l.186 1.058-.415-.926c-.834-1.857-1.213-4.5-1.062-7.408.257-4.964 1.57-8.301 4.381-11.14 2.305-2.328 3.953-2.984 7.093-2.825 1.91.097 2.451.248 4.467 1.247 4.36 2.16 7.163 5.962 8.195 11.115.683 3.413.418 8.965-.62 12.983-1.712 6.635-3.926 10.692-12.267 22.486-2.11 2.984-4.47 6.377-5.243 7.541-1.584 2.382-1.865 2.738-1.865 2.365zm27.683-40.87c-1.317-1.565-1.14-3.846.401-5.143 1.194-1.004 1.686-.88 2.079.522.184.655.269 1.676.19 2.268-.144 1.07-1.305 3.155-1.758 3.155-.13 0-.54-.36-.912-.802zm-3.746-15.19c-1.217-1.216-.564-2.794 1.158-2.794.705 0 .916.154 1.291.94.536 1.125.305 1.65-.95 2.163-.78.319-.895.295-1.499-.308z"
          ></path>
        </g>
      </svg>