<svg
        xmlns="http://www.w3.org/2000/svg"
        width="1612"
        height="211.671"
        version="1.1"
        viewBox="0 0 426.508 56.005"
      >
        <g transform="translate(182.618 -119.732)">
          <g
            fillOpacity="1"
            strokeWidth="0.265"
            transform="translate(-80.715 -95.148)"
          >
            <path
              fill="#767676"
              d="M-84.643 264.224c0-.51.054-.717.12-.463.067.255.067.672 0 .926-.066.255-.12.047-.12-.463z"
            ></path>
            <path
              fill="#333"
              d="M-91.705 270.237c-1.48-.838-2.569-2.49-2.727-4.135-.12-1.25-.069-1.395.805-2.268 1.446-1.446 3.435-1.268 4.29.385.593 1.148.488 2.014-.361 2.964-.586.656-.976.851-1.7.851-.823 0-.91.06-.688.474.68 1.272 3.588 1.698 5.122.75.465-.287 1.181-1.14 1.591-1.893.623-1.144.768-1.781.876-3.844l.13-2.472h-8.768c-7.617 0-8.767-.052-8.767-.397 0-.34.845-.397 6.019-.397h6.02l-1.123-.555c-1.434-.71-3.566-3.037-4.204-4.59l-.495-1.202-3.109-.001c-2.586-.001-3.108-.068-3.108-.398s.51-.397 3.002-.397h3.003l-.216-1.39c-.142-.919-.1-1.947.128-3.042l.343-1.654h-3.13c-2.606 0-3.13-.066-3.13-.397s.54-.396 3.282-.396h3.282l.722-1.257c.396-.691 1.421-2.12 2.277-3.175l1.556-1.918h-5.56c-4.765 0-5.56-.057-5.56-.397 0-.341.835-.397 5.921-.397 4.855 0 5.979-.07 6.24-.384.252-.304.203-.843-.232-2.564-.303-1.2-.551-2.455-.551-2.791v-.611h-5.689c-4.88 0-5.688-.057-5.688-.397s.79-.397 5.527-.397h5.527l.097-2.844c.085-2.462.198-3.048.838-4.357.408-.832 1.26-2.082 1.896-2.778.975-1.068 1.23-1.22 1.639-.979 1.449.86 3.57 6.253 3.625 9.22l.033 1.734 203.663.002 203.663.002v29.104h-204.06l-204.06.001-.04 2.543c-.034 2.234-.132 2.725-.8 4.034-1.501 2.948-4.73 4.094-7.35 2.61zm24.32-10.391c.879-.417 1.466-1.318 1.466-2.249 0-.475-.196-.516-2.46-.516-3.154 0-3.381-.203-2.138-1.896l.939-1.28H-78.577l-.186.86c-.436 2.023-1.928 3.976-3.787 4.958l-.964.51 7.633.01c6.36.01 7.777-.056 8.496-.397zm384.318-2.765v-3.175h-3.836c-2.382 0-3.837.1-3.837.264 0 .146-.357.265-.794.265-.436 0-.793-.12-.793-.265 0-.176-59.928-.264-179.256-.264-119.327 0-179.255.088-179.255.264 0 .146-.357.265-.794.265-.436 0-.793-.12-.793-.265 0-.167-1.896-.264-5.16-.264h-5.159v2.38h1.213c1.578 0 1.461.628-.139.745-1.114.081-1.13.097-.97.9.206 1.03.61 1.52 1.616 1.958.65.284 34.676.348 189.375.356l188.582.01zm3.704 0v-3.175H318.256v6.35H320.637zm-405.386 2.234c.091-.076-.42-3.78-.666-4.814-.131-.555-.281-.595-2.229-.595-1.148 0-2.088.105-2.088.233 0 .129.477.664 1.059 1.19 1.164 1.052 1.325 1.487.55 1.487-.635 0-1.985-1.115-2.59-2.138-.421-.714-.573-.772-2.015-.772-1.555 0-1.558.002-1.383.702.526 2.094 3.27 4.454 5.625 4.836 1.088.176 3.467.094 3.737-.13zm3.385-1.972c.38-.576.753-1.585.827-2.242l.135-1.195h-2.02c-1.362 0-2.018.1-2.018.309 0 .333.478 3.411.681 4.39.12.576.156.584.914.192.434-.225 1.1-.88 1.48-1.454zm15.445-2.247v-1.19h-1.406c-1.197 0-1.503.107-2.064.727-1.565 1.731-1.614 1.654 1.056 1.654h2.414zm-25.562-2.73c-.26-1.296.388-2.99 1.61-4.21l1.128-1.13h-4.102l-.559 1.39c-.475 1.181-1.09 3.701-1.09 4.467 0 .126.711.229 1.58.229h1.582zm5.718.431c0-.173-.145-1.018-.323-1.877l-.322-1.563-.921.15c-1.208.196-2.376 1.386-2.577 2.626l-.16.979h2.152c1.487 0 2.151-.098 2.151-.315zm5.027.165c0-.336-.636-1.351-1.289-2.057-.82-.886-1.909-1.497-2.666-1.497-.628 0-.648.18-.242 2.204l.302 1.5h1.947c1.072 0 1.948-.068 1.948-.15zm12.001-.734c.51-1.074 1.228-3.763 1.228-4.596v-.606H-82.22l1.4 1.446c1.11 1.146 1.493 1.777 1.845 3.043l.444 1.597h9.378zm2.816.498c0-.213.457-.81 1.015-1.326.558-.516 1.173-1.235 1.367-1.598.588-1.098.793-.756.793 1.325v1.985H-52.425v-6.086h-10.472l-1 1.197c-.55.658-1.717 2.028-2.593 3.043l-1.593 1.846H-67c.772 0 1.082-.11 1.082-.386zm373.592-1.599v-1.984H-50.838V253.112H307.673zm9.26-1.058v-3.043h-7.673v6.086h7.673zm3.704 0v-3.043H318.256v6.086H320.637zm-408.299-5.887c-.287-1.128-.617-2.149-.734-2.27-.215-.22-2.362 2.1-3.272 3.536l-.497.785h5.025zm19.626 1.85c0-.11.34-.35.753-.533.778-.344 1.364-1.285 1.364-2.19 0-.475-.196-.516-2.481-.516-3.06 0-3.36-.23-2.247-1.722l.788-1.056-8.534-.07c-6.613-.054-8.61.006-8.87.265-.27.271-.206.82.334 2.848.368 1.382.718 2.662.777 2.844.084.256 2.143.33 9.112.33 4.952 0 9.004-.09 9.004-.2zm4.961.007a19.341 19.341 0 00-2.513 0c-.692.054-.126.099 1.256.099 1.383 0 1.948-.045 1.257-.1zm10.65-2.98v-3.176H-62.744V242h1.213c1.578 0 1.461.627-.139.744-1.12.082-1.132.093-.972.926.171.892 1.245 2.034 1.913 2.034.218 0 .324.119.234.264-.106.173 1.276.265 3.953.265h4.117zm369.358 0v-3.176h-7.673v6.35h7.673zm3.704 0v-3.176H318.256v6.35H320.637zm-12.964-1.192v-1.984H-50.838v3.968H307.673zm-373.592-.926v-1.058h-1.541c-1.583 0-1.759.1-2.936 1.654-.327.432-.193.463 2.063.463h2.414zm-3.114-2.447c.535-.823 1.223-2.992 1.428-4.498l.17-1.257h-7.717c-7.117 0-7.728.036-7.863.463-.4 1.264-1.101 2.654-1.956 3.875-.52.743-1.037 1.5-1.149 1.682-.16.262 1.555.33 8.249.33h8.452zm3.114.077c0-.285.457-.941 1.015-1.458.558-.516 1.173-1.235 1.367-1.598.596-1.112.793-.749.793 1.458v2.116h5.16c3.263 0 5.159-.097 5.159-.264 0-.146.357-.265.793-.265.437 0 .794.12.794.265 0 .176 59.928.264 179.255.264s179.256-.088 179.256-.264c0-.146.357-.265.793-.265.437 0 .794.12.794.265 0 .164 1.455.264 3.837.264h3.836v-6.35l-189.905.002-189.904.002-2.719 3.173-2.719 3.173h1.198c1.012 0 1.197-.08 1.197-.518zm386.556-2.657v-3.175H318.256v6.35H320.637zm-407.762-.48c1.929-2.853 1.952-2.695-.385-2.695h-2.03l.16 1.257c.231 1.82.696 3.279.987 3.1.138-.086.71-.833 1.268-1.661zm2.205-4.216c.346-.84.44-4.614.143-5.689-.274-.985-.695-.917-2.124.34-1.324 1.166-2.428 3.188-2.702 4.952l-.175 1.125h2.279c2.236 0 2.284-.014 2.579-.728zm200.24-2.714c0-.073.34-.283.754-.467.777-.344 1.363-1.285 1.363-2.19 0-.475-.196-.516-2.46-.516-3.127 0-3.375-.207-2.193-1.83 1.775-2.434 3.066-5.725 3.066-7.817v-.804h2.381c1.31 0 2.381.062 2.381.138 0 .076-1.72 2.132-3.825 4.57-2.103 2.438-3.896 4.549-3.984 4.69-.1.162.746.26 2.237.26h2.397v-1.974c0-1.95.013-1.986 1.015-2.913.558-.517 1.174-1.236 1.368-1.598.194-.363.451-.66.572-.66.121 0 .22 1.608.22 3.572v3.572h1.213c1.578 0 1.462.628-.139.745-1.12.081-1.131.093-.972.926.175.908 1.249 2.033 1.941 2.033.235 0 .347.08.249.178-.205.205-7.584.288-7.583.085zm10.83-.334c-1.23-.828-2.3-2.669-2.652-4.559-.582-3.122.666-6.81 2.731-8.07 1.226-.747 3.29-.714 4.456.072 2.907 1.958 3.728 7.368 1.633 10.756-1.047 1.694-2.196 2.402-3.9 2.402-.994 0-1.626-.168-2.268-.6zm3.564-.808c.516-.693.555-1.086.555-5.47 0-4.392-.039-4.777-.557-5.471-.75-1.004-1.836-1.01-2.58-.013-.472.632-.562 1.209-.654 4.162-.132 4.21.084 6.104.797 7.01.696.886 1.684.797 2.44-.218zm7.302 1.142c0-.073.34-.283.754-.467.777-.344 1.363-1.285 1.363-2.19 0-.475-.196-.516-2.46-.516-3.127 0-3.376-.207-2.193-1.83 1.775-2.434 3.066-5.725 3.066-7.817v-.804h2.38c1.31 0 2.382.062 2.382.138 0 .076-1.721 2.132-3.825 4.57-2.103 2.438-3.896 4.549-3.984 4.69-.1.162.745.26 2.237.26h2.397v-1.974c0-1.95.013-1.986 1.015-2.913.558-.517 1.173-1.236 1.367-1.598.195-.363.452-.66.573-.66.121 0 .22 1.608.22 3.572v3.572h1.213c1.578 0 1.461.628-.139.745-1.12.081-1.131.093-.972.926.175.908 1.249 2.033 1.941 2.033.235 0 .346.08.249.178-.205.205-7.584.288-7.584.085z"
            ></path>
          </g>
        </g>
      </svg>