<svg
        xmlns="http://www.w3.org/2000/svg"
        width="1180.017"
        height="1581.007"
        version="1.1"
        viewBox="0 0 312.213 418.308"
      >
        <g transform="translate(-23.81 88.205)">
          <path
            fill="#00509e"
            fillOpacity="1"
            strokeWidth="1"
            d="M590.008 0c-152.91 0-305.82.338-315 1.012-60.046 4.409-114.171 25.126-162 62.008-12.232 9.432-40.564 37.764-49.996 49.996-36.882 47.828-57.6 101.954-62.008 162-1.348 18.37-1.334 611.547.016 630.265 2.595 36.001 11.221 70.33 25.69 102.235 34.642 76.383 102.417 135.807 182.3 159.84 19.707 5.928 43.268 10.477 61.998 11.968h.002c2.484.197 148.278.311 323.998.254l319.5-.103 13.5-2.221c65.264-10.737 120.035-38.358 165.043-83.233 33.204-33.105 56.63-70.967 71.463-115.505 8.322-24.989 12.544-46.332 14.484-73.235 1.35-18.718 1.365-611.895.016-630.265-4.409-60.046-25.128-114.172-62.01-162-9.432-12.232-37.762-40.564-49.994-49.996-47.83-36.882-101.957-57.6-162.002-62.008C895.827.338 742.918 0 590.008 0zm-295 295.016h590v591h-590v-295.5zM563.01 828.899c-33.207-3.32-71.111-16.139-100.905-34.125-21.383-12.91-47.088-35.458-62.422-54.759-27.81-35-44.934-74.887-51.307-119.5-2.059-14.416-2.328-48.678-.482-61.5 6.796-47.212 23.085-86.057 50.948-121.5 7.091-9.02 29.648-31.576 38.668-38.667 80.003-62.895 188.875-69.876 275.512-17.668 16.893 10.18 29.463 20.188 45.56 36.273 27.747 27.727 45.733 56.369 58.319 92.87 8.736 25.335 12.388 48.136 12.445 77.692.063 33.08-4.986 60.51-16.424 89.219-26.855 67.408-81.797 118.834-150.912 141.255-30.2 9.796-66.727 13.637-99 10.41z"
            opacity="1"
            transform="matrix(.26458 0 0 .26458 23.81 -88.205)"
          ></path>
          <path
            fill="#000"
            strokeWidth="0.265"
            d="M92.133 328.277c-.687-.984-10.952-15.913-22.812-33.178l-21.564-31.39-.068 31.016c-.037 17.058-.011 31.164.058 31.346.095.249 1.403.33 5.294.33h5.167V328.783H35.454V326.402h9.26V261.59l-4.564-.073-4.564-.072-.081-1.124-.081-1.125h22.418l16.785 24.389c9.233 13.413 16.874 24.516 16.98 24.672.108.156.197-10.28.2-23.192l.003-23.476-5.093-.072-5.093-.072-.082-1.124-.081-1.125h21.991V261.578h-8.465l-.067 34.046-.067 34.046-.735.197c-.684.183-.824.07-1.985-1.59zm120.231-31.247c-12.495-18.189-22.764-33.07-22.82-33.07-.056 0-.102 14.049-.102 31.22v31.221h10.583V328.783h-22.754V326.402h8.912l.173-5.358c.225-6.949.225-48.064 0-54.505l-.173-4.96h-8.912V259.197l11.178.01 11.18.012 16.8 24.484c9.24 13.466 16.89 24.541 17 24.61.109.07.198-10.417.198-23.304v-23.432H223.308v-2.38h21.96v2.38H236.887l-.174 5.6c-.096 3.079-.174 18.381-.174 34.005v28.406l-.68.259c-.372.141-.7.257-.727.255-.027 0-10.272-14.884-22.767-33.073zm68.491 32.12c-6.634-.839-10.965-2.464-13.588-5.1-2.566-2.577-3.732-5.542-4.262-10.84-.167-1.673-.274-12.259-.274-27.186v-24.446h-8.466v-2.38h29.104v2.38h-9.48l-.175 1.919c-.096 1.055-.125 12.812-.065 26.127.12 26.313.115 26.223 1.627 29.525.863 1.886 2.965 4.073 4.908 5.11 3.413 1.818 9.483 2.652 15.697 2.156 9.4-.75 13.783-3.524 15.697-9.936.44-1.47.48-3.537.562-28.238l.087-26.65-4.97-.073-4.97-.072-.082-1.124-.081-1.125h22.02l-.08 1.125-.082 1.124-4.3.073-4.299.073-.004 23.74c-.004 23.76-.146 28.508-.952 31.8-1.73 7.073-7.184 10.934-17.168 12.152-3.235.395-12.835.316-16.404-.135zm-156.236-1.558v-1.19h10.585l-.067-32.214-.067-32.213-4.498.077c-6.522.112-8.67.718-11.316 3.189-3.42 3.193-5.903 8.667-6.414 14.13l-.192 2.051h-2.848v-22.225h61.648v22.225h-2.849l-.183-1.786c-.552-5.383-2.617-10.487-5.57-13.772-1.527-1.698-4.15-3.054-6.76-3.495-1.05-.177-3.707-.338-5.906-.357l-4-.037v64.294l5.358.072 5.358.071v2.371h-32.28z"
          ></path>
        </g>
      </svg>