<svg
        xmlns="http://www.w3.org/2000/svg"
        width="455.4"
        height="455.4"
        x="0"
        y="0"
        version="1.1"
      >
        <g transform="translate(-192.8 -70.1)">
          <circle cx="420.5" cy="297.8" r="227.7" fill="#5ec0e2"></circle>
        </g>
        <g transform="translate(-192.8 -70.1)">
          <g>
            <path d="M328.6 297.9l-66.8-129.8h45.8l45 90.3 44.8-90.3h43.9l-67.9 129.8z"></path>
          </g>
          <g>
            <path d="M461.9 398.9l.2-51.2h89.1v-26.9H462v-56.2h-41.6v55.9H286.2v25.3l134.3.2v52.9c0 14.4 1.4 26.3 6.8 33.9 6.2 8.7 13.6 14.3 18.6 16.7 19.2 9.6 36.5 11.8 65.5 10.5 17-.8 35.6-6.6 46.7-10.3v-28.9c-4.8 2.1-9.9 4.1-16.7 6.4-37 12.6-64 2.2-64 2.2-.3-.2-16.3-4.5-15.5-30.5z"></path>
          </g>
        </g>
      </svg>